<?xml version="1.0" encoding="utf-8"?>
<svg version="1.1" xmlns="http://www.w3.org/2000/svg" xmlns:xlink="http://www.w3.org/1999/xlink" width="448px" height="84px" viewBox="0 0 448 84">
	<g id="Text">
		<path id="S" fill-rule="evenodd" clip-rule="evenodd" fill="#8A8C8F" d="M421.771,64.558c-1.961,0.06-4.518-0.303-7.035-1.015
		c-3.446-0.974-6.101-3.066-8.348-5.77c-0.452-0.542-0.593-0.914,0.111-1.431c1.804-1.324,3.565-2.709,5.292-4.133
		c0.612-0.506,0.961-0.384,1.497,0.095c1.914,1.709,3.903,3.328,6.508,3.886c2.686,0.576,5.34,0.421,7.871-0.646
		c1.466-0.619,2.725-1.535,2.821-3.385c0.099-1.91-1.086-2.91-2.562-3.694c-1.784-0.948-3.747-1.338-5.707-1.732
		c-2.39-0.479-4.759-1.057-7.035-1.933c-3.669-1.413-6.468-3.72-7.242-7.789c-0.998-5.245,1.146-9.979,5.923-12.52
		c6.578-3.501,13.341-3.407,20.061-0.31c1.919,0.884,3.372,2.396,4.627,4.093c0.425,0.575,0.527,0.918-0.187,1.397
		c-1.856,1.248-3.666,2.57-5.451,3.919c-0.62,0.469-0.954,0.376-1.465-0.17c-3.142-3.358-6.968-4.131-11.278-2.812
		c-1.489,0.456-2.708,1.28-2.896,2.996c-0.188,1.699,0.793,2.758,2.122,3.597c2.013,1.271,4.299,1.673,6.579,2.075
		c2.091,0.368,4.122,0.925,6.12,1.641c4.466,1.602,7.462,4.465,7.904,9.395c0.48,5.35-1.806,9.293-6.451,11.867
		C430.098,64.093,426.306,64.563,421.771,64.558z"/>
		<path id="E_1" fill-rule="evenodd" clip-rule="evenodd" fill="#8A8C8E" d="M388.048,46.479c-5.158,0-10.316,0.039-15.474-0.029
		c-1.213-0.016-1.345,0.475-1.113,1.414c0.911,3.704,3.317,6.149,6.693,7.653c6.492,2.893,12.512,1.546,17.203-3.81
		c0.654-0.746,1.098-0.752,1.839-0.176c1.577,1.226,3.188,2.415,4.847,3.525c0.845,0.564,0.905,0.938,0.216,1.717
		c-3.53,3.991-7.918,6.437-13.146,7.296c-5.293,0.871-10.521,0.684-15.495-1.604c-6.587-3.029-10.346-8.27-11.521-15.32
		c-1.047-6.274,0.195-12.099,4.202-17.165c3.858-4.879,9.018-7.446,15.141-7.975c4.72-0.408,9.336,0.061,13.554,2.56
		c5.313,3.149,8.203,7.892,9.291,13.861c0.41,2.25,0.455,4.522,0.488,6.802c0.015,0.982-0.234,1.284-1.251,1.274
		C398.364,46.45,393.206,46.479,388.048,46.479z M383.292,39.446c3.634,0,7.268-0.003,10.901,0.004
		c0.556,0.001,1.053,0.037,0.943-0.787c-0.498-3.737-2.029-6.794-5.595-8.491c-2.686-1.278-5.513-1.466-8.418-0.993
		c-4.557,0.742-8.613,4.51-9.634,8.939c-0.213,0.921-0.129,1.374,1.021,1.352C376.104,39.404,379.698,39.446,383.292,39.446z"/>
		<path id="Y" fill-rule="evenodd" clip-rule="evenodd" fill="#8A8C8F" d="M336.088,55.115c0-2.679-0.012-5.357,0.009-8.035
		c0.005-0.637-0.109-0.975-0.854-1.144c-8.147-1.843-13.771-8.064-14.959-16.443c-0.292-2.063-0.357-4.134-0.406-6.211
		c-0.018-0.773,0.232-1.054,1.029-1.039c2.358,0.043,4.718,0.043,7.076,0c0.796-0.015,1.022,0.242,1.001,1.032
		c-0.067,2.511-0.282,5.04,0.394,7.511c1.68,6.142,6.121,8.905,12.247,8.641c7.658-0.331,10.935-6.37,11.027-11.942
		c0.024-1.437,0.006-2.879-0.092-4.312c-0.049-0.708,0.155-0.927,0.837-0.921c2.479,0.021,4.957,0.012,7.436,0.006
		c0.448-0.001,0.766,0.068,0.784,0.636c0.189,5.666-0.547,11.102-4.021,15.823c-2.788,3.791-6.533,6.179-11.116,7.192
		c-0.838,0.186-0.992,0.523-0.989,1.272c0.023,5.277-0.006,10.555,0.031,15.831c0.007,0.867-0.184,1.192-1.118,1.167
		c-2.438-0.065-4.877-0.048-7.315-0.007c-0.783,0.014-1.031-0.227-1.018-1.022C336.117,60.473,336.089,57.794,336.088,55.115z"/>
		<path id="E" fill-rule="evenodd" clip-rule="evenodd" fill="#8A8C8E" d="M303.077,46.466c-5.158,0-10.316,0.028-15.474-0.022
		c-1.077-0.011-1.318,0.327-1.074,1.312c1.143,4.602,4.347,7.146,8.637,8.468c6.064,1.869,11.182,0.216,15.312-4.528
		c0.602-0.691,0.984-0.813,1.729-0.236c1.642,1.273,3.327,2.494,5.045,3.661c0.797,0.54,0.711,0.908,0.137,1.573
		c-3.577,4.141-8.108,6.592-13.46,7.418c-5.717,0.882-11.332,0.547-16.544-2.314c-6.141-3.371-9.43-8.685-10.308-15.535
		c-0.922-7.195,1.079-13.464,6.355-18.523c3.779-3.623,8.401-5.46,13.604-5.779c4.111-0.253,8.147,0.077,11.911,1.988
		c6.39,3.246,9.594,8.652,10.611,15.563c0.293,1.989,0.203,3.986,0.266,5.981c0.026,0.817-0.276,0.993-1.033,0.989
		C313.554,46.452,308.315,46.466,303.077,46.466z M298.292,39.434c3.634,0,7.268-0.025,10.899,0.02
		c0.881,0.011,1.139-0.29,0.987-1.107c-0.24-1.296-0.505-2.583-1.103-3.773c-1.762-3.512-4.78-5.018-8.524-5.558
		c-6.321-0.913-12.583,3.164-13.987,9.164c-0.252,1.078,0.057,1.288,1.068,1.274C291.186,39.404,294.739,39.435,298.292,39.434z"/>
		<path id="T" fill-rule="evenodd" clip-rule="evenodd" fill="#22419A" d="M247.313,22.941c5.037,0,10.075,0.025,15.112-0.023
		c0.914-0.009,1.152,0.244,1.126,1.134c-0.063,2.117-0.051,4.238-0.003,6.356c0.017,0.744-0.21,0.944-0.945,0.935
		c-3.118-0.04-6.238,0.029-9.355-0.044c-0.993-0.023-1.148,0.315-1.146,1.203c0.029,9.916,0.003,19.831,0.043,29.746
		c0.004,0.99-0.226,1.281-1.237,1.248c-2.436-0.08-4.88-0.097-7.314,0.006c-1.127,0.047-1.288-0.346-1.284-1.347
		c0.036-9.836,0.002-19.671,0.05-29.507c0.006-1.119-0.311-1.375-1.379-1.349c-2.997,0.074-5.997,0.007-8.995,0.04
		c-0.72,0.008-1.062-0.096-1.035-0.95c0.066-2.157,0.058-4.318,0.003-6.476c-0.02-0.8,0.234-0.995,1.008-0.99
		C237.078,22.958,242.195,22.941,247.313,22.941z"/>
		<path id="M" fill-rule="evenodd" clip-rule="evenodd" fill="#22419A" d="M216.941,35.17c-0.851,2.32-1.683,4.581-2.511,6.843
		c-2.495,6.818-4.999,13.633-7.469,20.46c-0.27,0.743-0.598,1.072-1.446,1.026c-1.555-0.084-3.121-0.08-4.677-0.002
		c-0.872,0.044-1.236-0.263-1.522-1.074c-3.088-8.767-6.218-17.519-9.338-26.274c-0.104-0.292-0.213-0.582-0.375-1.022
		c-0.324,0.409-0.214,0.759-0.212,1.069c0.058,8.758,0.114,17.516,0.199,26.272c0.007,0.746-0.123,1.051-0.967,1.029
		c-2.438-0.062-4.879-0.049-7.317-0.006c-0.729,0.013-0.949-0.178-0.948-0.931c0.023-12.878,0.024-25.756,0-38.634
		c-0.001-0.788,0.216-1.007,1.001-0.999c3.959,0.039,7.919,0.049,11.877-0.008c0.854-0.012,1.152,0.295,1.414,1.044
		c2.74,7.832,5.518,15.65,8.288,23.472c0.167,0.473,0.361,0.935,0.65,1.677c0.631-1.832,1.179-3.399,1.711-4.973
		c2.261-6.689,4.533-13.375,6.759-20.076c0.283-0.854,0.671-1.156,1.593-1.143c3.958,0.058,7.918,0.046,11.877,0.007
		c0.82-0.008,1.086,0.194,1.084,1.053c-0.027,12.838-0.025,25.676-0.003,38.513c0.001,0.789-0.224,1.017-1.014,1.001
		c-2.519-0.051-5.04-0.055-7.558,0.001c-0.845,0.02-1.063-0.22-1.054-1.063c0.098-8.797,0.153-17.595,0.215-26.393
		C217.201,35.783,217.311,35.494,216.941,35.17z"/>
		<path id="C" fill-rule="evenodd" clip-rule="evenodd" fill="#22419A" d="M160.55,64.533c-10.212,0.07-18.188-5.657-20.854-14.905
		c-2.707-9.391,0.584-19.327,8.329-24.086c7.68-4.72,15.706-4.767,23.775-0.847c1.301,0.632,2.404,1.568,3.453,2.565
		c0.438,0.416,0.618,0.689,0.068,1.218c-1.874,1.801-3.687,3.665-5.521,5.506c-0.304,0.305-0.476,0.625-0.991,0.1
		c-5.653-5.769-15.437-3.639-18.409,4.018c-1.356,3.495-1.328,7.056,0.074,10.531c3.094,7.672,12.872,9.479,18.513,3.427
		c0.516-0.554,0.721-0.323,1.094,0.031c1.825,1.736,3.638,3.487,5.506,5.176c0.596,0.539,0.552,0.845,0.016,1.386
		c-3.53,3.559-7.806,5.47-12.774,5.872C162.073,64.586,161.31,64.533,160.55,64.533z"/>
	</g>
	<g id="head">
		<g id="Reye">
			<path id="Reye5" fill-rule="evenodd" clip-rule="evenodd" fill="#8A8C8F" d="M55.327,72.197c-2.113,1.429-4.681,2.238-7.092,2.901
			c-8.907,2.451-17.644,2.333-25.921-2.226c-8.667-4.772-13.299-12.06-13.24-22.106c0.003-0.638,0.032-1.276,0.049-1.914
			c0.483-2.998,1.258-5.903,2.674-8.613c1.997-3.823,4.907-6.76,8.623-8.915c0.346-0.2,0.724-0.628,1.135-0.083L55.327,72.197z"/>
			<path id="Reye4" fill-rule="evenodd" clip-rule="evenodd" fill="#FDFDFD" d="M46.174,72.502
			c-6.489,0.639-12.849,0.209-18.787-2.786c-6.447-3.251-9.913-8.586-10.127-15.765c-0.2-6.729,3.016-11.82,8.448-15.608
			c0.355-0.248,0.711-0.495,1.067-0.742l27.129,32.622C51.563,71.916,47.893,72.237,46.174,72.502z"/>
			<path id="Reye3" fill-rule="evenodd" clip-rule="evenodd" fill="#035BAA" d="M41.685,55.588
			c-1.743,1.729-2.822,4.117-2.822,6.756c0,5.275,4.312,9.552,9.631,9.552c2.01,0,3.877-0.611,5.421-1.655L41.685,55.588z"/>
			<circle id="Reye2" fill-rule="evenodd" clip-rule="evenodd" fill="#2E3192" cx="47.57" cy="64.147" r="3.23"/>
			<circle id="Reye1" fill-rule="evenodd" clip-rule="evenodd" fill="#FFFFFF" cx="44.684" cy="60.7" r="2"/>
		</g>
		<g id="Leye">
			<path id="Leye5" fill-rule="evenodd" clip-rule="evenodd" fill="#8A8C8F" d="M71.103,72.197c2.114,1.429,4.68,2.238,7.092,2.901
			c8.906,2.451,17.644,2.333,25.921-2.226c8.666-4.772,13.299-12.06,13.24-22.106c-0.003-0.638-0.032-1.276-0.049-1.914
			c-0.483-2.998-1.259-5.903-2.675-8.613c-1.997-3.823-4.907-6.76-8.622-8.915c-0.346-0.2-0.725-0.628-1.135-0.083L71.103,72.197z"/>
			<path id="Leye4" fill-rule="evenodd" clip-rule="evenodd" fill="#FDFDFD" d="M80.255,72.502
			c6.489,0.639,12.849,0.209,18.787-2.786c6.447-3.251,9.913-8.586,10.127-15.765c0.2-6.729-3.016-11.82-8.448-15.608
			c-0.354-0.248-0.71-0.495-1.067-0.742L72.525,70.223C74.867,71.916,78.537,72.237,80.255,72.502z"/>
			<path id="Leye3" fill-rule="evenodd" clip-rule="evenodd" fill="#035BAA" d="M84.745,55.588c1.743,1.729,2.822,4.117,2.822,6.756
			c0,5.275-4.313,9.552-9.631,9.552c-2.009,0-3.877-0.611-5.421-1.655L84.745,55.588z"/>
			<circle id="Leye2" fill-rule="evenodd" clip-rule="evenodd" fill="#2E3192" cx="78.859" cy="64.147" r="3.23"/>
			<circle id="Leye1" fill-rule="evenodd" clip-rule="evenodd" fill="#FFFFFF" cx="81.746" cy="60.7" r="2"/>
		</g>
		<path id="Head" fill-rule="evenodd" clip-rule="evenodd" fill="#203F99" d="M21.88,31.681c-0.595-0.725-1.045-0.601-1.708-0.201
		c-6.39,3.856-9.815,9.621-10.97,17.212c-0.06-0.457-0.088-0.611-0.098-0.767c-0.01-0.159-0.002-0.319-0.002-0.479
		c0-12.999,0-25.998,0-38.996c0-0.16,0.002-0.32,0-0.48c-0.006-0.881,0.314-1.564,1.188-1.881c0.913-0.331,1.538,0.12,2.048,0.812
		c2.09,2.83,4.175,5.664,6.263,8.496c0.896,1.214,1.794,2.426,2.834,3.833c1.316-4.948,4.264-8.098,9.069-9.119
		c4.661-0.991,8.904-0.106,12.266,3.902c0-1.412,0-2.609,0-3.897c1.54,0,3.076,0,4.844,0c0,1.205-0.092,2.432,0.018,3.641
		c0.317,3.483,2.865,5.685,6.487,5.701c3.688,0.017,6.236-2.178,6.588-5.729c0.117-1.181,0.115-2.374,0.171-3.631
		c1.539,0,3.076,0,4.659,0c0,1.378,0,2.705,0,4.224c2.836-3.312,6.378-4.706,10.57-4.528c4.31,0.182,7.537,2.102,9.64,6.13
		c1.49-5.065,5.337-6.214,9.81-6.095c2.965,0.08,5.65,1.001,7.482,3.832c-1.224,0.881-2.405,1.733-3.313,2.387
		c-1.606-0.702-2.951-1.498-4.403-1.847c-0.929-0.223-2.081,0.045-3.02,0.396c-1.622,0.604-1.853,2.509-0.362,3.369
		c1.209,0.698,2.638,1.076,4.015,1.41c2.383,0.579,4.765,1.093,6.586,3.106c0.303-0.379,0.579-0.702,0.831-1.042
		c3.513-4.761,7.025-9.524,10.53-14.29c0.517-0.703,1.117-1.46,2.038-1.077c0.549,0.229,0.913,0.949,1.3,1.491
		c0.115,0.162,0.03,0.468,0.03,0.708c0,12.839,0.001,25.678-0.001,38.516c0,0.31-0.03,0.618-0.116,0.953
		c-1.366-7.438-5.154-13.121-11.932-16.82c-6.852,8.267-39.828,48.219-39.828,48.219c-1.495,1.792-2.837,1.803-4.323,0.034
		C61.07,79.171,27.103,38.047,21.88,31.681z M31.844,33.222c0.29,0.46,0.438,0.73,0.618,0.976
		c9.508,12.91,19.015,25.819,28.532,38.722c1.385,1.878,3.079,1.851,4.48-0.051c9.466-12.841,18.928-25.685,28.387-38.531
		c0.217-0.294,0.388-0.625,0.677-1.096c-3.809,0.049-7.074-0.722-9.479-3.779c-3.035,3.069-6.685,3.933-10.735,3.771
		c-6.059-0.243-10.652-4.616-11.037-10.671c-0.064-1.005-0.009-2.018-0.009-2.747c-1.712,0.963-3.351,2.112-5.163,2.819
		c-1.114,0.434-1.44,0.866-1.408,1.99c0.078,2.745,0.025,5.494,0.025,8.262c-1.789,0-3.436,0-5.14,0
		c0-2.945-0.022-5.783,0.014-8.619c0.01-0.82-0.123-1.269-1.073-1.479c-1.956-0.433-3.588-1.518-4.958-2.986
		c-0.2-0.214-0.433-0.397-0.694-0.634c0,1.381,0,2.641,0,4.1c-6.143,0-12.227,0-18.432,0c0.233,2.467,1.513,3.983,3.424,4.924
		c4.058,1.998,7.58,1.122,10.446-2.347c1.273,0.93,2.425,1.771,3.637,2.656C40.803,32.421,36.646,33.444,31.844,33.222z
		 M82.199,25.823c1,1.027,1.958,2.01,2.917,2.995c1.196-0.904,2.265-1.713,3.354-2.536c2.055,1.99,4.275,3.112,7.123,2.496
		c1.672-0.362,2.78-1.174,2.855-2.298c0.076-1.141-0.714-1.986-2.427-2.572c-0.376-0.128-0.766-0.222-1.153-0.313
		c-0.815-0.192-1.665-0.285-2.442-0.573c-1.898-0.705-3.763-1.499-5.622-2.249c0,0.129-0.001,0.485,0,0.841
		c0.006,1.608,0.006,1.61-1.638,1.611c-5.115,0.001-10.231-0.004-15.346,0.007c-0.486,0.001-0.972,0.1-1.505,0.158
		c0.442,2.902,2.181,4.465,4.637,5.316C76.653,29.99,79.689,28.883,82.199,25.823z M26.57,19.342c4.447,0,8.805,0,13.166,0
		c-0.139-3.663-2.625-5.844-6.476-5.8C29.741,13.583,26.603,16.269,26.57,19.342z M81.605,19.392
		c-0.111-3.822-2.76-6.034-6.808-5.844c-3.375,0.159-6.478,3.024-6.269,5.844C72.859,19.392,77.192,19.392,81.605,19.392z"/>
	</g>
</svg>
